<svg xmlns="http://www.w3.org/2000/svg" width="1200" height="630" viewBox="0 0 1200 630"><defs><linearGradient id="b" x1="40" y1="20" x2="1160" y2="610" gradientUnits="userSpaceOnUse"><stop stop-color="#173329"/><stop offset=".55" stop-color="#2F7D5A"/><stop offset="1" stop-color="#4D6FDB"/></linearGradient><linearGradient id="m" x1="0" y1="0" x2="230" y2="230"><stop stop-color="#45C98C"/><stop offset="1" stop-color="#718DFF"/></linearGradient></defs><rect width="1200" height="630" fill="url(#b)"/><circle cx="1090" cy="60" r="230" fill="#F2C14E" opacity=".12"/><circle cx="60" cy="630" r="250" fill="#fff" opacity=".06"/><path d="M0 520C210 430 390 570 620 490S990 390 1200 460" fill="none" stroke="#fff" stroke-width="3" opacity=".12"/><g transform="translate(860 148)" data-brand-mark="tos-bgo-community"><rect width="230" height="230" rx="72" fill="url(#m)"/><path d="M48 107 115 55 182 107M57 166C79 137 151 137 173 166" fill="none" stroke="#fff" stroke-width="16" stroke-linecap="round" stroke-linejoin="round"/><circle cx="79" cy="128" r="14" fill="#fff"/><circle cx="115" cy="122" r="17" fill="#F2C14E"/><circle cx="151" cy="128" r="14" fill="#fff"/></g><g font-family="Inter,Arial,sans-serif" fill="#fff"><text x="78" y="190" font-size="84" font-weight="900">ТОС БГО</text><text x="82" y="258" font-size="31" font-weight="700">Портал территориального общественного</text><text x="82" y="302" font-size="31" font-weight="700">самоуправления</text><text x="82" y="366" font-size="25" font-weight="600" opacity=".78">Борисоглебский городской округ</text><text x="82" y="512" font-size="25" font-weight="700" opacity=".9">Каталог · Новости · Проекты · Документы</text><text x="82" y="558" font-size="23" font-weight="700" fill="#F2C14E">tosborisoglebsk.ru</text></g></svg>
